/* XPM */
static char *allu_g[] = {
/* columns rows colors chars-per-pixel */
"33 90 97 2",
"   c #000000",
".  c #010500",
"X  c #051503",
"o  c #041602",
"O  c #061404",
"+  c #071406",
"@  c #081407",
"#  c #052001",
"$  c #062303",
"%  c #072204",
"&  c #0A2107",
"*  c #042800",
"=  c #062A02",
"-  c #0C2109",
";  c #0D210A",
":  c #0E210B",
">  c #063500",
",  c #063600",
"<  c #063800",
"1  c #073901",
"2  c #073D00",
"3  c #073F00",
"4  c #084300",
"5  c #084401",
"6  c #0A5001",
"7  c #0A5301",
"8  c #0A5400",
"9  c #0A5600",
"0  c #0B5901",
"q  c #115A07",
"w  c #0D6002",
"e  c #0C6B00",
"r  c #0D6D00",
"t  c #147D06",
"y  c #168108",
"u  c #13A600",
"i  c #14AA00",
"p  c #15B100",
"a  c #23B90F",
"s  c #18CE00",
"d  c #18CF00",
"f  c #19D200",
"g  c #1ADE00",
"h  c #28D012",
"j  c #2CD216",
"k  c #1EFF00",
"l  c #33F717",
"z  c #30FA15",
"x  c #31FA16",
"c  c #36F71C",
"v  c #3DFC24",
"b  c #41FC29",
"n  c #45FC2D",
"m  c #46FC2D",
"M  c #4FFD38",
"N  c #51FF3A",
"B  c #52FF3B",
"V  c #53FD3C",
"C  c #60FF4C",
"Z  c #62FF4F",
"A  c #64FF50",
"S  c #66FF53",
"D  c #68FF55",
"F  c #69FF55",
"G  c #6CFF59",
"H  c #6DFF5A",
"J  c #6EFF5B",
"K  c #70FF5D",
"L  c #71FF5E",
"P  c #72FF5F",
"I  c #76FE66",
"U  c #78FE66",
"Y  c #8EFF80",
"T  c #8FFF80",
"R  c #9CFF90",
"E  c #9EFF90",
"W  c #A0FF93",
"Q  c #B1FFA6",
"!  c #B2FFA7",
"~  c #BAFFB0",
"^  c #C5FFBC",
"/  c #C6FFBD",
"(  c #C7FFBF",
")  c #C8FFC0",
"_  c #C9FFC2",
"`  c #CBFFC4",
"'  c #CCFFC5",
"]  c #CDFFC7",
"[  c #CEFFC8",
"{  c #CFFFC9",
"}  c #DFFFDB",
"|  c #F4FFF3",
" . c #F7FFF6",
".. c #FBFFFA",
"X. c #FDFFFD",
"o. c #FEFFFE",
"O. c None",
/* pixels */
"O.O.O.O.O.O.O.O.O.O.O.O.O.O.O.O.O.O.O.O.O.O.O.O.O.O.O.O.O.O.O.O.O.",
"O.O.O.O.O.O.O.O.O.O.O.O.O.O.O.O.O.O.O.O.O.O.O.O.O.O.O.O.O.O.O.O.O.",
"O.O.O.O.O.O.O.O.O.O.O.O.O.O.O.O.O.O.O.O.O.O.O.O.O.O.O.O.O.O.O.O.O.",
"O.O.O.O.O.O.O.O.O.O.O.O.O.O.O.O.O.O.O.O.O.O.O.O.O.O.O.O.O.O.O.O.O.",
"O.O.O.O.O.O.O.O.O.O.O.O.O.O.O.O.O.O.O.O.O.O.O.O.O.O.O.O.O.O.O.O.O.",
"O.O.O.O.O.O.O.O.O.O.O.O.O.O.O.O.O.O.O.O.O.O.O.O.O.O.O.O.O.O.O.O.O.",
"O.O.O.O.O.O.O.O.O.O.O.O.O.O.O.O.O.O.O.O.O.O.O.O.O.O.O.O.O.O.O.O.O.",
"O.O.O.O.O.O.O.O.O.O.O.O.O.O.O.O.O.O.O.O.O.O.O.O.O.O.O.O.O.O.O.O.O.",
"O.O.O.O.O.O.O.O.O.O.O.O.O.O.O.O.O.O.O.O.O.O.O.O.O.O.O.O.O.O.O.O.O.",
"O.O.O.O.O.O.O.O.O.O.O.O.O.O.O.O.O.O.O.O.O.O.O.O.O.O.O.O.O.O.O.O.O.",
"O.O.O.O.O.O.O.O.O.O.O.O.O.O.O.O.O.O.O.O.O.O.O.O.O.O.O.O.O.O.O.O.O.",
"O.O.O.O.O.O.O.O.O.O.O.O.O.O.O.O.O.O.O.O.O.O.O.O.O.O.O.O.O.O.O.O.O.",
"O.O.O.O.O.O.O.O.O.O.O.O.O.O.O.O.O.O.O.O.O.O.O.O.O.O.O.O.O.O.O.O.O.",
"O.O.O.O.O.O.O.O.O.O.O.O.O.O.O.O.O.O.O.O.O.O.O.O.O.O.O.O.O.O.O.O.O.",
"O.O.O.O.O.O.O.O.O.O.O.O.O.O.O.O.O.O.O.O.O.O.O.O.O.O.O.O.O.O.O.O.O.",
"O.O.O.O.O.O.O.O.O.O.O.O.O.O.O.O.O.O.O.O.O.O.O.O.O.O.O.O.O.O.O.O.O.",
"O.O.O.O.O.O.O.O.O.O.O.O.O.O.O.O.O.O.O.O.O.O.O.O.O.O.O.O.O.O.O.O.O.",
"O.O.O.O.O.O.O.O.O.O.O.O.O.O.7 =   = 9 O.O.O.O.O.O.O.O.O.O.O.O.O.O.",
"O.O.O.O.O.O.O.O.O.O.O.O.O.i 5 q   q 4 p O.O.O.O.O.O.O.O.O.O.O.O.O.",
"O.O.O.O.O.O.O.O.O.O.O.O.O.3 w x B x 0 3 O.O.O.O.O.O.O.O.O.O.O.O.O.",
"O.O.O.O.O.O.O.O.O.O.O.O.f = j U E I h # O.O.O.O.O.O.O.O.O.O.O.O.O.",
"O.O.O.O.O.O.O.O.O.O.O.O.s % b E ` E v X g O.O.O.O.O.O.O.O.O.O.O.O.",
"O.O.O.O.O.O.O.O.O.O.O.O.s : A / | / C + g O.O.O.O.O.O.O.O.O.O.O.O.",
"O.O.O.O.O.O.O.O.O.O.O.O.d : G ` ..` D @ g O.O.O.O.O.O.O.O.O.O.O.O.",
"O.O.O.O.O.O.O.O.O.O.O.O.s : P { X.{ G @ g O.O.O.O.O.O.O.O.O.O.O.O.",
"O.O.O.O.O.O.O.O.O.O.O.k s : P { X.{ J @ g k O.O.O.O.O.O.O.O.O.O.O.",
"O.O.O.O.O.O.O.O.O.O.O.k s : P { X.{ J @ g k O.O.O.O.O.O.O.O.O.O.O.",
"O.O.O.O.O.O.O.O.O.O.O.k s : P { X.{ J @ g k O.O.O.O.O.O.O.O.O.O.O.",
"O.O.O.O.O.O.O.O.O.O.k k s : P { X.{ J @ g k k O.O.O.O.O.O.O.O.O.O.",
"O.O.O.O.O.O.O.O.O.O.k k s : P { X.{ J @ g k k O.O.O.O.O.O.O.O.O.O.",
"O.O.O.O.O.O.O.O.O.O.k k s : P { X.{ G @ g k k O.O.O.O.O.O.O.O.O.O.",
"O.O.O.O.O.O.O.O.O.O.k k s : P { X.{ J @ g k k O.O.O.O.O.O.O.O.O.O.",
"O.O.O.O.O.O.O.O.O.O.k k s : P { X.{ J @ g k k O.O.O.O.O.O.O.O.O.O.",
"O.O.O.O.O.O.O.O.O.k k k s : P { X.{ J @ g k k k O.O.O.O.O.O.O.O.O.",
"O.O.O.O.O.O.O.O.O.k k k s : P { X.{ J @ g k k k O.O.O.O.O.O.O.O.O.",
"O.O.O.O.O.O.O.O.O.k k k s : P { X.{ J @ g k k k O.O.O.O.O.O.O.O.O.",
"O.O.O.O.O.O.O.O.O.k k k s : P { X.{ J @ g k k k O.O.O.O.O.O.O.O.O.",
"O.O.O.O.O.O.O.O.O.k k k s : P { X.{ J @ g k k k O.O.O.O.O.O.O.O.O.",
"O.O.O.O.O.O.O.O.O.k k k s : P { X.{ J @ g k k k O.O.O.O.O.O.O.O.O.",
"O.O.O.O.O.O.O.O.O.k k k s : P { X.{ J @ g k k k O.O.O.O.O.O.O.O.O.",
"O.O.O.O.O.O.O.O.O.k k k s : P { X.{ J @ g k k k O.O.O.O.O.O.O.O.O.",
"O.O.O.O.O.O.O.O.O.k k k s : P { X.{ J @ g k k k O.O.O.O.O.O.O.O.O.",
"O.O.O.O.O.O.O.O.O.k k k s : P { X.{ J @ g k k k O.O.O.O.O.O.O.O.O.",
"O.O.O.O.O.O.O.O.O.k k k s : P { X.{ J @ g k k k O.O.O.O.O.O.O.O.O.",
"O.O.O.O.O.O.O.O.O.k k k s : P { X.{ J @ g k k k O.O.O.O.O.O.O.O.O.",
"O.O.O.O.O.O.O.O.O.k k k s : P ] X.{ J @ g k k k O.O.O.O.O.O.O.O.O.",
"O.O.O.O.O.O.O.O.O.k k k s : P ] X.{ J @ g k k k O.O.O.O.O.O.O.O.O.",
"O.O.O.O.O.O.O.O.O.k k k s : I { X.{ J @ g k k k O.O.O.O.O.O.O.O.O.",
"O.O.O.O.O.O.O.O.O.k k k s : P { X.{ J @ g k k k O.O.O.O.O.O.O.O.O.",
"O.O.O.O.O.O.O.O.O.k k k s : P { X.{ J @ g k k k O.O.O.O.O.O.O.O.O.",
"O.O.O.O.O.O.O.O.O.k k k s : P { X.{ J @ g k k k O.O.O.O.O.O.O.O.O.",
"O.O.O.O.O.O.O.O.O.k k k s : P { X.{ J @ g k k k O.O.O.O.O.O.O.O.O.",
"O.O.O.O.O.O.O.O.O.k k k s : P { X.{ J @ g k k k O.O.O.O.O.O.O.O.O.",
"O.O.O.O.O.O.O.O.O.k k k s : P { X.{ J @ g k k k O.O.O.O.O.O.O.O.O.",
"O.O.O.O.O.O.O.O.O.k k k s : P { X.{ J @ g k k k O.O.O.O.O.O.O.O.O.",
"O.O.O.O.O.O.O.O.O.k k k s : P { X.{ J @ g k k k O.O.O.O.O.O.O.O.O.",
"O.O.O.O.O.O.O.O.O.k k k s : P { X.{ J @ g k k O.O.O.O.O.O.O.O.O.O.",
"O.O.O.O.O.O.O.O.O.O.k k s : P { X.{ J @ g k k O.O.O.O.O.O.O.O.O.O.",
"O.O.O.O.O.O.O.O.O.O.k k s : P { X.{ J @ g k k O.O.O.O.O.O.O.O.O.O.",
"O.O.O.O.O.O.O.O.O.O.k k s : P { X.{ J @ g k k O.O.O.O.O.O.O.O.O.O.",
"O.O.O.O.O.O.O.O.O.O.k k s : P { X.{ J @ g k k O.O.O.O.O.O.O.O.O.O.",
"O.O.O.O.O.O.O.O.O.O.O.k s : P { X.{ J @ g k O.O.O.O.O.O.O.O.O.O.O.",
"O.O.O.O.O.O.O.O.O.O.O.k s : P { X.{ J @ g k O.O.O.O.O.O.O.O.O.O.O.",
"O.O.O.O.O.O.O.O.O.O.O.k s : P { X.{ J @ g k O.O.O.O.O.O.O.O.O.O.O.",
"O.O.O.O.O.O.O.O.O.O.O.O.s : P { X.{ G + g O.O.O.O.O.O.O.O.O.O.O.O.",
"O.O.O.O.O.O.O.O.O.O.O.O.s : J { X.{ G @ g O.O.O.O.O.O.O.O.O.O.O.O.",
"O.O.O.O.O.O.O.O.O.O.O.O.s : A _  ./ A + g O.O.O.O.O.O.O.O.O.O.O.O.",
"O.O.O.O.O.O.O.O.O.O.O.O.s & V ! } Q M + g O.O.O.O.O.O.O.O.O.O.O.O.",
"O.O.O.O.O.O.O.O.O.O.O.O.f # c T ~ T l X O.O.O.O.O.O.O.O.O.O.O.O.O.",
"O.O.O.O.O.O.O.O.O.O.O.O.O.1 y m D n t , O.O.O.O.O.O.O.O.O.O.O.O.O.",
"O.O.O.O.O.O.O.O.O.O.O.O.O.e 7 a M a 7 r O.O.O.O.O.O.O.O.O.O.O.O.O.",
"O.O.O.O.O.O.O.O.O.O.O.O.O.O., .   . , O.O.O.O.O.O.O.O.O.O.O.O.O.O.",
"O.O.O.O.O.O.O.O.O.O.O.O.O.O.O.u k u O.O.O.O.O.O.O.O.O.O.O.O.O.O.O.",
"O.O.O.O.O.O.O.O.O.O.O.O.O.O.O.O.O.O.O.O.O.O.O.O.O.O.O.O.O.O.O.O.O.",
"O.O.O.O.O.O.O.O.O.O.O.O.O.O.O.O.O.O.O.O.O.O.O.O.O.O.O.O.O.O.O.O.O.",
"O.O.O.O.O.O.O.O.O.O.O.O.O.O.O.O.O.O.O.O.O.O.O.O.O.O.O.O.O.O.O.O.O.",
"O.O.O.O.O.O.O.O.O.O.O.O.O.O.O.O.O.O.O.O.O.O.O.O.O.O.O.O.O.O.O.O.O.",
"O.O.O.O.O.O.O.O.O.O.O.O.O.O.O.O.O.O.O.O.O.O.O.O.O.O.O.O.O.O.O.O.O.",
"O.O.O.O.O.O.O.O.O.O.O.O.O.O.O.O.O.O.O.O.O.O.O.O.O.O.O.O.O.O.O.O.O.",
"O.O.O.O.O.O.O.O.O.O.O.O.O.O.O.O.O.O.O.O.O.O.O.O.O.O.O.O.O.O.O.O.O.",
"O.O.O.O.O.O.O.O.O.O.O.O.O.O.O.O.O.O.O.O.O.O.O.O.O.O.O.O.O.O.O.O.O.",
"O.O.O.O.O.O.O.O.O.O.O.O.O.O.O.O.O.O.O.O.O.O.O.O.O.O.O.O.O.O.O.O.O.",
"O.O.O.O.O.O.O.O.O.O.O.O.O.O.O.O.O.O.O.O.O.O.O.O.O.O.O.O.O.O.O.O.O.",
"O.O.O.O.O.O.O.O.O.O.O.O.O.O.O.O.O.O.O.O.O.O.O.O.O.O.O.O.O.O.O.O.O.",
"O.O.O.O.O.O.O.O.O.O.O.O.O.O.O.O.O.O.O.O.O.O.O.O.O.O.O.O.O.O.O.O.O.",
"O.O.O.O.O.O.O.O.O.O.O.O.O.O.O.O.O.O.O.O.O.O.O.O.O.O.O.O.O.O.O.O.O.",
"O.O.O.O.O.O.O.O.O.O.O.O.O.O.O.O.O.O.O.O.O.O.O.O.O.O.O.O.O.O.O.O.O.",
"O.O.O.O.O.O.O.O.O.O.O.O.O.O.O.O.O.O.O.O.O.O.O.O.O.O.O.O.O.O.O.O.O.",
"O.O.O.O.O.O.O.O.O.O.O.O.O.O.O.O.O.O.O.O.O.O.O.O.O.O.O.O.O.O.O.O.O.",
"O.O.O.O.O.O.O.O.O.O.O.O.O.O.O.O.O.O.O.O.O.O.O.O.O.O.O.O.O.O.O.O.O."
};
