/* XPM */
static char *allu_etein__[] = {
/* columns rows colors chars-per-pixel */
"28 95 109 2",
"   c #533016",
".  c #533116",
"X  c #533017",
"o  c #523117",
"O  c #523216",
"+  c #533216",
"@  c #523217",
"#  c #523317",
"$  c #543017",
"%  c #543216",
"&  c #5C3714",
"*  c #5D3615",
"=  c #5E3615",
"-  c #5E3516",
";  c #5E3517",
":  c #5D3616",
">  c #5D3617",
",  c #5E3616",
"<  c #513318",
"1  c #513319",
"2  c #533218",
"3  c #523318",
"4  c #52331A",
"5  c #53331A",
"6  c #53331B",
"7  c #513418",
"8  c #51341B",
"9  c #52341B",
"0  c #51351C",
"q  c #51351D",
"w  c #52341C",
"e  c #52351C",
"r  c #53341E",
"t  c #52351E",
"y  c #52341F",
"u  c #51361E",
"i  c #51371E",
"p  c #52361F",
"a  c #54341D",
"s  c #513620",
"d  c #513721",
"f  c #523621",
"g  c #523722",
"h  c #523623",
"j  c #523723",
"k  c #533624",
"l  c #523724",
"z  c #533725",
"x  c #513821",
"c  c #523824",
"v  c #513826",
"b  c #513827",
"n  c #523826",
"m  c #523927",
"M  c #523928",
"N  c #6B4120",
"B  c #6B4121",
"V  c #694320",
"C  c #6B4220",
"Z  c #6A4320",
"A  c #6A4321",
"S  c #724925",
"D  c #724926",
"F  c #724927",
"G  c #7C542F",
"H  c #7D542F",
"J  c #7D5431",
"K  c #7E5431",
"L  c #885F3B",
"P  c #895F3B",
"I  c #8A5F3A",
"U  c #885F3C",
"Y  c #8A5F3C",
"T  c #88603A",
"R  c #8F653F",
"E  c #8E6541",
"W  c #8E6640",
"Q  c #8E6542",
"!  c #A27A53",
"~  c #A27A54",
"^  c #A27956",
"/  c #A47954",
"(  c #A57D57",
")  c #A67E56",
"_  c #A87D55",
"`  c #A67C58",
"'  c #A67D58",
"]  c #BE976D",
"[  c #BD976F",
"{  c #BE976E",
"}  c #BF976E",
"|  c #BE976F",
" . c #BD986F",
".. c #BE986F",
"X. c #BD9870",
"o. c #BD9970",
"O. c #BD9871",
"+. c #BC9971",
"@. c #BD9971",
"#. c #BE9870",
"$. c #BE9971",
"%. c #BC9A71",
"&. c #BD9A71",
"*. c #BC9972",
"=. c #BE9972",
"-. c #C1976D",
";. c #C0976E",
":. c #0C4E82",
">. c None",
/* pixels */
">.>.>.>.>.>.>.>.>.>.>.>.>.>.>.>.>.>.>.>.>.>.>.>.>.>.>.>.",
">.>.>.>.>.>.>.>.>.>.>.>.>.>.>.>.>.>.>.>.>.>.>.>.>.>.>.>.",
">.>.>.>.>.>.>.>.>.>.>.>.>.>.>.>.>.>.>.>.>.>.>.>.>.>.>.>.",
">.>.>.>.>.>.>.>.>.>.>.>.>.>.>.>.>.>.>.>.>.>.>.>.>.>.>.>.",
">.>.>.>.>.>.>.>.>.>.>.>.>.>.>.>.>.>.>.>.>.>.>.>.>.>.>.>.",
">.>.>.>.>.>.>.>.>.>.>.>.>.>.>.>.>.>.>.>.>.>.>.>.>.>.>.>.",
">.>.>.>.>.>.>.>.>.>.>.>.>.>.>.>.>.>.>.>.>.>.>.>.>.>.>.>.",
">.>.>.>.>.>.>.>.>.>.>.>.>.>.>.>.>.>.>.>.>.>.>.>.>.>.>.>.",
">.>.>.>.>.>.>.>.>.>.>.>.>.>.>.>.>.>.>.>.>.>.>.>.>.>.>.>.",
">.>.>.>.>.>.>.>.>.>.>.>.>.>.>.>.>.>.>.>.>.>.>.>.>.>.>.>.",
">.>.>.>.>.>.>.>.>.>.>.>.>.>.>.>.>.>.>.>.>.>.>.>.>.>.>.>.",
">.>.>.>.>.>.>.>.>.>.>.>.>.>.>.>.>.>.>.>.>.>.>.>.>.>.>.>.",
">.>.>.>.>.>.>.:.:.:.:.:.:.:.:.:.:.:.:.:.:.:.>.>.>.>.>.>.",
">.>.>.>.>.>.:.:.:.:.:.:.:.:.:.:.:.:.:.:.:.:.:.>.>.>.>.>.",
">.>.>.>.>.>.:.:.:.:.:.:.:.:.:.:.:.:.:.:.:.:.:.>.>.>.>.>.",
">.>.>.>.>.>.:.:.:.:.:.:.:.:.:.:.:.:.:.:.:.:.:.>.>.>.>.>.",
">.>.>.>.>.>.:.:.:.:.:.:.:.:.:.:.:.:.:.:.:.:.:.>.>.>.>.>.",
">.>.>.>.>.>.:.:.:.:.:.:.:.:.:.:.:.:.:.:.:.:.:.>.>.>.>.>.",
">.>.>.>.>.>.:.:.:.:.:.:.:.:.:.:.:.:.:.:.:.:.:.>.>.>.>.>.",
">.>.>.>.>.>.:.:.:.:.:.:.:.:.:.:.:.:.:.:.:.:.:.>.>.>.>.>.",
">.>.>.>.>.>.:.:.:.:.:.:.:.:.:.:.:.:.:.:.:.:.:.>.>.>.>.>.",
">.>.>.>.>.>.:.:.:.:.:.:.:.:.:.:.:.:.:.:.:.:.:.>.>.>.>.>.",
">.>.>.>.>.>.:.:.:.:.:.:.:.:.:.:.:.:.:.:.:.:.:.>.>.>.>.>.",
">.>.>.>.>.>.:.:.:.:.:.:.:.:.:.:.:.:.:.:.:.:.:.>.>.>.>.>.",
">.>.>.>.>.>.:.:.:.:.:.:.:.:.:.:.:.:.:.:.:.:.:.>.>.>.>.>.",
">.>.>.>.>.>.:.:.:.:.:.:.:.:.:.:.:.:.:.:.:.:.:.>.>.>.>.>.",
">.>.>.>.>.>.:.:.:.:.:.:.:.:.:.:.:.:.:.:.:.:.:.>.>.>.>.>.",
">.>.>.>.>.>.>.:.:.:.:.:.:.:.:.:.:.:.:.:.:.:.>.>.>.>.>.>.",
">.>.>.>.>.>.>.>.=.;.( ! E P U U J S A : M >.>.>.>.>.>.>.",
">.>.>.>.>.>.>.>.=.;.` ^ E U U U H S N : m >.>.>.>.>.>.>.",
">.>.>.>.>.>.>.>.=.;.( ^ E U U U H S N : m >.>.>.>.>.>.>.",
">.>.>.>.>.>.>.>.=.;.` ^ E U U U H S N : m >.>.>.>.>.>.>.",
">.>.>.>.>.>.>.>.=.;.( ^ E U U U H S N : m >.>.>.>.>.>.>.",
">.>.>.>.>.>.>.>.=.;.` ^ E U U U H S A : z >.>.>.>.>.>.>.",
">.>.>.>.>.>.>.>.=.;.` ^ E U U U H S N : M >.>.>.>.>.>.>.",
">.>.>.>.>.>.>.>.=.;.` ^ E U U U J S N : m >.>.>.>.>.>.>.",
">.>.>.>.>.>.>.>.=.;.( ^ Q U U U H S N : z >.>.>.>.>.>.>.",
">.>.>.>.>.>.>.>.=.;.( ^ Q U U U H S N : m >.>.>.>.>.>.>.",
">.>.>.>.>.>.>.>.=.;.( / Q U U U H S A : m >.>.>.>.>.>.>.",
">.>.>.>.>.>.>.>.=.;.` ^ Q U U U H S N : n >.>.>.>.>.>.>.",
">.>.>.>.>.>.>.>.&...( ^ E T U U H S C = n >.>.>.>.>.>.>.",
">.>.>.>.>.>.>.>.=.;.` ^ Q U U U H S C = n >.>.>.>.>.>.>.",
">.>.>.>.>.>.>.>.=...( ^ Q U U U H S Z = n >.>.>.>.>.>.>.",
">.>.>.>.>.>.>.>.;.;.` ^ Q U U U H S N = g >.>.>.>.>.>.>.",
">.>.>.>.>.>.>.>.=...( ^ Q U U U H S B = n >.>.>.>.>.>.>.",
">.>.>.>.>.>.>.>.=.;.( ^ Q U U U H S B = n >.>.>.>.>.>.>.",
">.>.>.>.>.>.>.>.=.;.` ^ Q U U U H S N = k >.>.>.>.>.>.>.",
">.>.>.>.>.>.>.>.=.;.` / Q U U U H S B = k >.>.>.>.>.>.>.",
">.>.>.>.>.>.>.>.=.} ` ^ E U U U H S N = g >.>.>.>.>.>.>.",
">.>.>.>.>.>.>.>.=.;.( ^ E T U U H S Z : x >.>.>.>.>.>.>.",
">.>.>.>.>.>.>.>.+.} ( ^ Q U U U H S N : x >.>.>.>.>.>.>.",
">.>.>.>.>.>.>.>.=.} ( ^ Q U U U H S Z : f >.>.>.>.>.>.>.",
">.>.>.>.>.>.>.>.=.;.` ^ Q U U U H S N : f >.>.>.>.>.>.>.",
">.>.>.>.>.>.>.>.=.;.` ^ Q U U U H S Z : f >.>.>.>.>.>.>.",
">.>.>.>.>.>.>.>.=...` ^ Q U U U H S N : e >.>.>.>.>.>.>.",
">.>.>.>.>.>.>.>.=.;.` ^ Q U U U J S A : i >.>.>.>.>.>.>.",
">.>.>.>.>.>.>.>.=...` ^ E T U U H S N : e >.>.>.>.>.>.>.",
">.>.>.>.>.>.>.>...;.` ^ E T U U H S N : e >.>.>.>.>.>.>.",
">.>.>.>.>.>.>.>.=...( ^ Q U U U H S B ; f >.>.>.>.>.>.>.",
">.>.>.>.>.>.>.>.....( / Q U U U H S B : a >.>.>.>.>.>.>.",
">.>.>.>.>.>.>.>.=.;.' ^ Q U U U H S C : a >.>.>.>.>.>.>.",
">.>.>.>.>.>.>.>.=.;.' ^ Q U U U H S C : a >.>.>.>.>.>.>.",
">.>.>.>.>.>.>.>.=.| ' ^ Q U U U H S C : e >.>.>.>.>.>.>.",
">.>.>.>.>.>.>.>.| ;.' ^ Q U U U H S C : e >.>.>.>.>.>.>.",
">.>.>.>.>.>.>.>.} } ` ^ E T U U J S N : e >.>.>.>.>.>.>.",
">.>.>.>.>.>.>.>.=.;.` ^ Q T U U J S C : e >.>.>.>.>.>.>.",
">.>.>.>.>.>.>.>...} ` ^ Q U U U H S C : e >.>.>.>.>.>.>.",
">.>.>.>.>.>.>.>.=.;.` ^ Q U U U H S C : e >.>.>.>.>.>.>.",
">.>.>.>.>.>.>.>.=.} ( ^ Q U U U H S C : 2 >.>.>.>.>.>.>.",
">.>.>.>.>.>.>.>...} ( ^ Q U U U H S C : 2 >.>.>.>.>.>.>.",
">.>.>.>.>.>.>.>.=.} ` ^ Q U U U H S C : 2 >.>.>.>.>.>.>.",
">.>.>.>.>.>.>.>.=.;.` ^ Q U U U H S C : e >.>.>.>.>.>.>.",
">.>.>.>.>.>.>.>.=.;.` ^ Q U U U H S N : e >.>.>.>.>.>.>.",
">.>.>.>.>.>.>.>.| | ` ^ Q U U U H S N : @ >.>.>.>.>.>.>.",
">.>.>.>.>.>.>.>.=.;.` ^ Q U U U H S B : < >.>.>.>.>.>.>.",
">.>.>.>.>.>.>.>...;.` ^ Q U U U H S B : < >.>.>.>.>.>.>.",
">.>.>.>.>.>.>.>.....` ^ E T U U H S N = < >.>.>.>.>.>.>.",
">.>.>.>.>.>.>.>.} } ` ^ Q U U U H S N = @ >.>.>.>.>.>.>.",
">.>.>.>.>.>.>.>.} } ( ^ Q U U U H S N = @ >.>.>.>.>.>.>.",
">.>.>.>.>.>.>.>.=.} ( ^ Q U U U H S N : @ >.>.>.>.>.>.>.",
">.>.>.>.>.>.>.>.=.;.` ^ Q U U U H S Z : @ >.>.>.>.>.>.>.",
">.>.>.>.>.>.>.>.=.;.` ^ Q U U U H S B = < >.>.>.>.>.>.>.",
">.>.>.>.>.>.>.>...;.` ^ Q U U U H S N = % >.>.>.>.>.>.>.",
">.>.>.>.>.>.>.>...;.` ^ Q U U U H S N = % >.>.>.>.>.>.>.",
">.>.>.>.>.>.>.>.} ;.` ^ Q U U U H S N = @ >.>.>.>.>.>.>.",
">.>.>.>.>.>.>.>.} } ` ^ Q U U U H S N = % >.>.>.>.>.>.>.",
">.>.>.>.>.>.>.>...;.` ^ Q U U U H S N = @ >.>.>.>.>.>.>.",
">.>.>.>.>.>.>.>...;.` ^ Q U U U H S N : @ >.>.>.>.>.>.>.",
">.>.>.>.>.>.>.>.....( ^ E U U U J S N > % >.>.>.>.>.>.>.",
">.>.>.>.>.>.>.>...;.( / E U U U H S N :   >.>.>.>.>.>.>.",
">.>.>.>.>.>.>.>.....` ^ Q U U U H S N :   >.>.>.>.>.>.>.",
">.>.>.>.>.>.>.>.=.;.` ^ Q U U U H S N : % >.>.>.>.>.>.>.",
">.>.>.>.>.>.>.>...;.( / Q U U U J S N & @ >.>.>.>.>.>.>.",
">.>.>.>.>.>.>.>.;.;.( ! Q T U U J S A & @ >.>.>.>.>.>.>.",
">.>.>.>.>.>.>.>.;.;._ / R T T U J F N : % >.>.>.>.>.>.>."
};
