/* XPM */
static char *allu_r[] = {
/* columns rows colors chars-per-pixel */
"33 90 97 2",
"   c #030101",
".  c #050000",
"X  c #150303",
"o  c #160202",
"O  c #140404",
"+  c #140606",
"@  c #140707",
"#  c #200101",
"$  c #230202",
"%  c #260000",
"&  c #220404",
"*  c #220707",
"=  c #280000",
"-  c #2A0202",
";  c #210909",
":  c #210A0A",
">  c #210B0B",
",  c #350000",
"<  c #360000",
"1  c #380000",
"2  c #390101",
"3  c #3D0000",
"4  c #3F0000",
"5  c #430000",
"6  c #440101",
"7  c #500101",
"8  c #530101",
"9  c #540000",
"0  c #560000",
"q  c #590101",
"w  c #5F0202",
"e  c #5A0707",
"r  c #5A0808",
"t  c #5A1414",
"y  c #6B0000",
"u  c #6C0000",
"i  c #7D0606",
"p  c #810707",
"a  c #A50000",
"s  c #A60000",
"d  c #AB0000",
"f  c #B00000",
"g  c #B90F0F",
"h  c #BC2B2B",
"j  c #CE0000",
"k  c #CF0000",
"l  c #D20000",
"z  c #DE0000",
"x  c #D01212",
"c  c #D21616",
"v  c #FF0000",
"b  c #F61717",
"n  c #FA1515",
"m  c #FA1616",
"M  c #F71B1B",
"N  c #FC2424",
"B  c #FC2929",
"V  c #FC2C2C",
"C  c #FC2D2D",
"Z  c #FD3838",
"A  c #FD3C3C",
"S  c #FF3C3C",
"D  c #FF4C4C",
"F  c #FF4F4F",
"G  c #FF5050",
"H  c #FF5353",
"J  c #FF5555",
"K  c #FF5959",
"L  c #FF5A5A",
"P  c #FF5B5B",
"I  c #FF5D5D",
"U  c #FF5E5E",
"Y  c #FF5F5F",
"T  c #FE6666",
"R  c #FF8080",
"E  c #FF9090",
"W  c #FF9393",
"Q  c #FFA6A6",
"!  c #FFA7A7",
"~  c #FFB0B0",
"^  c #FFBCBC",
"/  c #FFBDBD",
"(  c #FFBFBF",
")  c #FFC0C0",
"_  c #FFC2C2",
"`  c #FFC4C4",
"'  c #FFC5C5",
"]  c #FFC7C7",
"[  c #FFC8C8",
"{  c #FFC9C9",
"}  c #FFDBDB",
"|  c #FFF3F3",
" . c #FFF6F6",
".. c #FFFAFA",
"X. c #FFFDFD",
"o. c #FFFEFE",
"O. c None",
/* pixels */
"O.O.O.O.O.O.O.O.O.O.O.O.O.O.O.O.O.O.O.O.O.O.O.O.O.O.O.O.O.O.O.O.O.",
"O.O.O.O.O.O.O.O.O.O.O.O.O.O.O.O.O.O.O.O.O.O.O.O.O.O.O.O.O.O.O.O.O.",
"O.O.O.O.O.O.O.O.O.O.O.O.O.O.O.O.O.O.O.O.O.O.O.O.O.O.O.O.O.O.O.O.O.",
"O.O.O.O.O.O.O.O.O.O.O.O.O.O.O.O.O.O.O.O.O.O.O.O.O.O.O.O.O.O.O.O.O.",
"O.O.O.O.O.O.O.O.O.O.O.O.O.O.O.O.O.O.O.O.O.O.O.O.O.O.O.O.O.O.O.O.O.",
"O.O.O.O.O.O.O.O.O.O.O.O.O.O.O.O.O.O.O.O.O.O.O.O.O.O.O.O.O.O.O.O.O.",
"O.O.O.O.O.O.O.O.O.O.O.O.O.O.O.O.O.O.O.O.O.O.O.O.O.O.O.O.O.O.O.O.O.",
"O.O.O.O.O.O.O.O.O.O.O.O.O.O.O.O.O.O.O.O.O.O.O.O.O.O.O.O.O.O.O.O.O.",
"O.O.O.O.O.O.O.O.O.O.O.O.O.O.O.O.O.O.O.O.O.O.O.O.O.O.O.O.O.O.O.O.O.",
"O.O.O.O.O.O.O.O.O.O.O.O.O.O.O.O.O.O.O.O.O.O.O.O.O.O.O.O.O.O.O.O.O.",
"O.O.O.O.O.O.O.O.O.O.O.O.O.O.O.O.O.O.O.O.O.O.O.O.O.O.O.O.O.O.O.O.O.",
"O.O.O.O.O.O.O.O.O.O.O.O.O.O.O.O.O.O.O.O.O.O.O.O.O.O.O.O.O.O.O.O.O.",
"O.O.O.O.O.O.O.O.O.O.O.O.O.O.O.O.O.O.O.O.O.O.O.O.O.O.O.O.O.O.O.O.O.",
"O.O.O.O.O.O.O.O.O.O.O.O.O.O.O.O.O.O.O.O.O.O.O.O.O.O.O.O.O.O.O.O.O.",
"O.O.O.O.O.O.O.O.O.O.O.O.O.O.O.O.O.O.O.O.O.O.O.O.O.O.O.O.O.O.O.O.O.",
"O.O.O.O.O.O.O.O.O.O.O.O.O.O.O.O.O.O.O.O.O.O.O.O.O.O.O.O.O.O.O.O.O.",
"O.O.O.O.O.O.O.O.O.O.O.O.O.O.O.O.O.O.O.O.O.O.O.O.O.O.O.O.O.O.O.O.O.",
"O.O.O.O.O.O.O.O.O.O.O.O.O.O.9 % % - 9 O.O.O.O.O.O.O.O.O.O.O.O.O.O.",
"O.O.O.O.O.O.O.O.O.O.O.O.O.d 5 r t e 5 f O.O.O.O.O.O.O.O.O.O.O.O.O.",
"O.O.O.O.O.O.O.O.O.O.O.O.O.5 w m A m q 3 O.O.O.O.O.O.O.O.O.O.O.O.O.",
"O.O.O.O.O.O.O.O.O.O.O.O.l - c T E T x # O.O.O.O.O.O.O.O.O.O.O.O.O.",
"O.O.O.O.O.O.O.O.O.O.O.O.j & B E ` E N X z O.O.O.O.O.O.O.O.O.O.O.O.",
"O.O.O.O.O.O.O.O.O.O.O.O.j > G / | / D + z O.O.O.O.O.O.O.O.O.O.O.O.",
"O.O.O.O.O.O.O.O.O.O.O.O.j > K ` ..` J + z O.O.O.O.O.O.O.O.O.O.O.O.",
"O.O.O.O.O.O.O.O.O.O.O.O.j > Y { o.` Y + z O.O.O.O.O.O.O.O.O.O.O.O.",
"O.O.O.O.O.O.O.O.O.O.O.v j > Y { o.{ K + z v O.O.O.O.O.O.O.O.O.O.O.",
"O.O.O.O.O.O.O.O.O.O.O.v j > Y { o.{ Y + z v O.O.O.O.O.O.O.O.O.O.O.",
"O.O.O.O.O.O.O.O.O.O.O.v j > Y { o.{ K + z v O.O.O.O.O.O.O.O.O.O.O.",
"O.O.O.O.O.O.O.O.O.O.v v j > Y { o.{ K + z v v O.O.O.O.O.O.O.O.O.O.",
"O.O.O.O.O.O.O.O.O.O.v v j > Y { o.` Y + z v v O.O.O.O.O.O.O.O.O.O.",
"O.O.O.O.O.O.O.O.O.O.v v j > Y { o.{ K + z v v O.O.O.O.O.O.O.O.O.O.",
"O.O.O.O.O.O.O.O.O.O.v v j > Y { o.{ Y + z v v O.O.O.O.O.O.O.O.O.O.",
"O.O.O.O.O.O.O.O.O.O.v v j > Y { o.` Y @ z v v O.O.O.O.O.O.O.O.O.O.",
"O.O.O.O.O.O.O.O.O.v v v j > Y { o.{ K + z v v v O.O.O.O.O.O.O.O.O.",
"O.O.O.O.O.O.O.O.O.v v v j > Y { o.{ K + z v v v O.O.O.O.O.O.O.O.O.",
"O.O.O.O.O.O.O.O.O.v v v j > Y { o.{ Y + z v v v O.O.O.O.O.O.O.O.O.",
"O.O.O.O.O.O.O.O.O.v v v j > Y { o.` Y + z v v v O.O.O.O.O.O.O.O.O.",
"O.O.O.O.O.O.O.O.O.v v v j > Y { o.{ K + z v v v O.O.O.O.O.O.O.O.O.",
"O.O.O.O.O.O.O.O.O.v v v j > Y { o.{ Y + z v v v O.O.O.O.O.O.O.O.O.",
"O.O.O.O.O.O.O.O.O.v v v j > Y { o.{ K + z v v v O.O.O.O.O.O.O.O.O.",
"O.O.O.O.O.O.O.O.O.v v v j > Y { o.{ K + z v v v O.O.O.O.O.O.O.O.O.",
"O.O.O.O.O.O.O.O.O.v v v j > Y { o.{ Y @ z v v v O.O.O.O.O.O.O.O.O.",
"O.O.O.O.O.O.O.O.O.v v v j > Y { o.{ Y + z v v v O.O.O.O.O.O.O.O.O.",
"O.O.O.O.O.O.O.O.O.v v v j > Y { o.` K + z v v v O.O.O.O.O.O.O.O.O.",
"O.O.O.O.O.O.O.O.O.v v v j > Y { o.` Y @ z v v v O.O.O.O.O.O.O.O.O.",
"O.O.O.O.O.O.O.O.O.v v v j > Y { o.{ K + z v v v O.O.O.O.O.O.O.O.O.",
"O.O.O.O.O.O.O.O.O.v v v j > Y { o.{ K + z v v v O.O.O.O.O.O.O.O.O.",
"O.O.O.O.O.O.O.O.O.v v v j > Y { o.{ Y + z v v v O.O.O.O.O.O.O.O.O.",
"O.O.O.O.O.O.O.O.O.v v v j > Y { o.{ K + z v v v O.O.O.O.O.O.O.O.O.",
"O.O.O.O.O.O.O.O.O.v v v j > Y { o.{ Y + z v v v O.O.O.O.O.O.O.O.O.",
"O.O.O.O.O.O.O.O.O.v v v j > Y { o.` Y @ z v v v O.O.O.O.O.O.O.O.O.",
"O.O.O.O.O.O.O.O.O.v v v j > Y { o.{ K + z v v v O.O.O.O.O.O.O.O.O.",
"O.O.O.O.O.O.O.O.O.v v v j > Y { o.{ K + z v v v O.O.O.O.O.O.O.O.O.",
"O.O.O.O.O.O.O.O.O.v v v j > Y { o.{ Y + z v v v O.O.O.O.O.O.O.O.O.",
"O.O.O.O.O.O.O.O.O.v v v j > Y { o.` Y @ z v v v O.O.O.O.O.O.O.O.O.",
"O.O.O.O.O.O.O.O.O.v v v j > Y { o.{ K + z v v v O.O.O.O.O.O.O.O.O.",
"O.O.O.O.O.O.O.O.O.v v v j > Y { o.{ K + z v v O.O.O.O.O.O.O.O.O.O.",
"O.O.O.O.O.O.O.O.O.O.v v j > Y { o.{ Y + z v v O.O.O.O.O.O.O.O.O.O.",
"O.O.O.O.O.O.O.O.O.O.v v j > Y { o.` Y + z v v O.O.O.O.O.O.O.O.O.O.",
"O.O.O.O.O.O.O.O.O.O.v v j > Y { o.{ K + z v v O.O.O.O.O.O.O.O.O.O.",
"O.O.O.O.O.O.O.O.O.O.v v j > Y { o.{ K + z v v O.O.O.O.O.O.O.O.O.O.",
"O.O.O.O.O.O.O.O.O.O.O.v j > Y { o.{ Y + z v O.O.O.O.O.O.O.O.O.O.O.",
"O.O.O.O.O.O.O.O.O.O.O.v j > Y { o.{ Y @ z v O.O.O.O.O.O.O.O.O.O.O.",
"O.O.O.O.O.O.O.O.O.O.O.v j > Y { o.` K + z v O.O.O.O.O.O.O.O.O.O.O.",
"O.O.O.O.O.O.O.O.O.O.O.O.j > Y ` o.{ K @ z O.O.O.O.O.O.O.O.O.O.O.O.",
"O.O.O.O.O.O.O.O.O.O.O.O.j > Y { o.` K @ z O.O.O.O.O.O.O.O.O.O.O.O.",
"O.O.O.O.O.O.O.O.O.O.O.O.j > G ) | / G + z O.O.O.O.O.O.O.O.O.O.O.O.",
"O.O.O.O.O.O.O.O.O.O.O.O.j > A Q } Q A + z O.O.O.O.O.O.O.O.O.O.O.O.",
"O.O.O.O.O.O.O.O.O.O.O.O.l # M R ~ R b X O.O.O.O.O.O.O.O.O.O.O.O.O.",
"O.O.O.O.O.O.O.O.O.O.O.O.O.2 p C J C i < O.O.O.O.O.O.O.O.O.O.O.O.O.",
"O.O.O.O.O.O.O.O.O.O.O.O.O.y 8 g h g 8 u O.O.O.O.O.O.O.O.O.O.O.O.O.",
"O.O.O.O.O.O.O.O.O.O.O.O.O.O.< .   . < O.O.O.O.O.O.O.O.O.O.O.O.O.O.",
"O.O.O.O.O.O.O.O.O.O.O.O.O.O.O.s s s O.O.O.O.O.O.O.O.O.O.O.O.O.O.O.",
"O.O.O.O.O.O.O.O.O.O.O.O.O.O.O.O.O.O.O.O.O.O.O.O.O.O.O.O.O.O.O.O.O.",
"O.O.O.O.O.O.O.O.O.O.O.O.O.O.O.O.O.O.O.O.O.O.O.O.O.O.O.O.O.O.O.O.O.",
"O.O.O.O.O.O.O.O.O.O.O.O.O.O.O.O.O.O.O.O.O.O.O.O.O.O.O.O.O.O.O.O.O.",
"O.O.O.O.O.O.O.O.O.O.O.O.O.O.O.O.O.O.O.O.O.O.O.O.O.O.O.O.O.O.O.O.O.",
"O.O.O.O.O.O.O.O.O.O.O.O.O.O.O.O.O.O.O.O.O.O.O.O.O.O.O.O.O.O.O.O.O.",
"O.O.O.O.O.O.O.O.O.O.O.O.O.O.O.O.O.O.O.O.O.O.O.O.O.O.O.O.O.O.O.O.O.",
"O.O.O.O.O.O.O.O.O.O.O.O.O.O.O.O.O.O.O.O.O.O.O.O.O.O.O.O.O.O.O.O.O.",
"O.O.O.O.O.O.O.O.O.O.O.O.O.O.O.O.O.O.O.O.O.O.O.O.O.O.O.O.O.O.O.O.O.",
"O.O.O.O.O.O.O.O.O.O.O.O.O.O.O.O.O.O.O.O.O.O.O.O.O.O.O.O.O.O.O.O.O.",
"O.O.O.O.O.O.O.O.O.O.O.O.O.O.O.O.O.O.O.O.O.O.O.O.O.O.O.O.O.O.O.O.O.",
"O.O.O.O.O.O.O.O.O.O.O.O.O.O.O.O.O.O.O.O.O.O.O.O.O.O.O.O.O.O.O.O.O.",
"O.O.O.O.O.O.O.O.O.O.O.O.O.O.O.O.O.O.O.O.O.O.O.O.O.O.O.O.O.O.O.O.O.",
"O.O.O.O.O.O.O.O.O.O.O.O.O.O.O.O.O.O.O.O.O.O.O.O.O.O.O.O.O.O.O.O.O.",
"O.O.O.O.O.O.O.O.O.O.O.O.O.O.O.O.O.O.O.O.O.O.O.O.O.O.O.O.O.O.O.O.O.",
"O.O.O.O.O.O.O.O.O.O.O.O.O.O.O.O.O.O.O.O.O.O.O.O.O.O.O.O.O.O.O.O.O.",
"O.O.O.O.O.O.O.O.O.O.O.O.O.O.O.O.O.O.O.O.O.O.O.O.O.O.O.O.O.O.O.O.O.",
"O.O.O.O.O.O.O.O.O.O.O.O.O.O.O.O.O.O.O.O.O.O.O.O.O.O.O.O.O.O.O.O.O."
};
