/* XPM */
static char *allu__[] = {
/* columns rows colors chars-per-pixel */
"33 90 81 1",
"  c #020303",
". c #020404",
"X c #0F1414",
"o c #0E1514",
"O c #0E1515",
"+ c #0B1C1B",
"@ c #101414",
"# c #002623",
"$ c #002724",
"% c #012825",
"& c #012927",
"* c #072A27",
"= c #042F2C",
"- c #0A2E2B",
"; c #162221",
": c #172221",
"> c #132624",
", c #182120",
"< c #192121",
"1 c #1A2121",
"2 c #07312E",
"3 c #153936",
"4 c #163B38",
"5 c #004842",
"6 c #004A44",
"7 c #2D4D49",
"8 c #2F4F4C",
"9 c #3D5956",
"0 c #3E5957",
"q c #03625A",
"w c #05605A",
"e c #435A58",
"r c #415F5C",
"t c #567D7A",
"y c #59817C",
"u c #00A597",
"i c #00A598",
"p c #00CEBD",
"a c #00DECC",
"s c #81B9B4",
"d c #82B9B4",
"f c #8DBCB8",
"g c #92D0CB",
"h c #95D2CC",
"j c #AFF6F0",
"k c #AFFAF4",
"l c #B0F7F0",
"z c #B0FAF4",
"x c #B6FCF6",
"c c #B7FCF6",
"v c #B9FCF6",
"b c #BFFDF8",
"n c #BEFDF9",
"m c #BFFFFA",
"M c #C5FFFB",
"N c #C6FFFB",
"B c #C7FFFB",
"V c #C8FFFB",
"C c #C9FFFB",
"Z c #CBFFFB",
"A c #CCFEFA",
"S c #CDFEFA",
"D c #D6FFFC",
"F c #DBFFFC",
"G c #DCFFFC",
"H c #E2FFFD",
"J c #E3FFFD",
"K c #E6FFFD",
"L c #E9FFFE",
"P c #EAFFFE",
"I c #EBFFFE",
"U c #ECFFFD",
"Y c #ECFFFE",
"T c #EDFFFE",
"R c #EEFFFE",
"E c #F4FFFE",
"W c #FBFFFF",
"Q c #FCFFFF",
"! c #FEFFFF",
"~ c #FFFFFF",
"^ c None",
/* pixels */
"^^^^^^^^^^^^^^^^^^^^^^^^^^^^^^^^^",
"^^^^^^^^^^^^^^^^^^^^^^^^^^^^^^^^^",
"^^^^^^^^^^^^^^^^^^^^^^^^^^^^^^^^^",
"^^^^^^^^^^^^^^^^^^^^^^^^^^^^^^^^^",
"^^^^^^^^^^^^^^^^^^^^^^^^^^^^^^^^^",
"^^^^^^^^^^^^^^^^^^^^^^^^^^^^^^^^^",
"^^^^^^^^^^^^^^^^^^^^^^^^^^^^^^^^^",
"^^^^^^^^^^^^^^^^^^^^^^^^^^^^^^^^^",
"^^^^^^^^^^^^^^^^^^^^^^^^^^^^^^^^^",
"^^^^^^^^^^^^^^^^^^^^^^^^^^^^^^^^^",
"^^^^^^^^^^^^^^^^^^^^^^^^^^^^^^^^^",
"^^^^^^^^^^^^^^^^^^^^^^^^^^^^^^^^^",
"^^^^^^^^^^^^^^^^^^^^^^^^^^^^^^^^^",
"^^^^^^^^^^^^^^^^^^^^^^^^^^^^^^^^^",
"^^^^^^^^^^^^^^^^^^^^^^^^^^^^^^^^^",
"^^^^^^^^^^^^^^^^^^^^^^^^^^^^^^^^^",
"^^^^^^^^^^^^^^^^^^^^^^^^^^^^^^^^^",
"^^^^^^^^^^^^^^5$#$6^^^^^^^^^^^^^^",
"^^^^^^^^^^^^^^40e03^^^^^^^^^^^^^^",
"^^^^^^^^^^^^^2rzmk0=^^^^^^^^^^^^^",
"^^^^^^^^^^^^^>hAFZg+^^^^^^^^^^^^^",
"^^^^^^^^^^^^^:cFRFxo^^^^^^^^^^^^^",
"^^^^^^^^^^^^^1MLWLMo^^^^^^^^^^^^^",
"^^^^^^^^^^^^^1ZR~LZ@^^^^^^^^^^^^^",
"^^^^^^^^^^^^^1ZR~RZX^^^^^^^^^^^^^",
"^^^^^^^^^^^^^1ZR~RZX^^^^^^^^^^^^^",
"^^^^^^^^^^^^p1ZR~LM@^^^^^^^^^^^^^",
"^^^^^^^^^^^^p1ZR~RZ@^^^^^^^^^^^^^",
"^^^^^^^^^^^^p1ZR~RM@^^^^^^^^^^^^^",
"^^^^^^^^^^^^p1ZR~RZ@a^^^^^^^^^^^^",
"^^^^^^^^^^^^p1ZR~LZXa^^^^^^^^^^^^",
"^^^^^^^^^^^^p1ZR~RZXa^^^^^^^^^^^^",
"^^^^^^^^^^^^p1ZR~RZ@a^^^^^^^^^^^^",
"^^^^^^^^^^^^p1ZR~LZXa^^^^^^^^^^^^",
"^^^^^^^^^^^^p1ZR~RZoa^^^^^^^^^^^^",
"^^^^^^^^^^^^p1ZR~RZ@a^^^^^^^^^^^^",
"^^^^^^^^^^^^p1ZR~RZXa^^^^^^^^^^^^",
"^^^^^^^^^^^^p1ZR~LZXa^^^^^^^^^^^^",
"^^^^^^^^^^^^p1ZR~RZXa^^^^^^^^^^^^",
"^^^^^^^^^^^^p1ZR~LZXa^^^^^^^^^^^^",
"^^^^^^^^^^^^p1ZR~RM@a^^^^^^^^^^^^",
"^^^^^^^^^^^^p1ZR~RZXa^^^^^^^^^^^^",
"^^^^^^^^^^^^p1ZR~RZXa^^^^^^^^^^^^",
"^^^^^^^^^^^^p1ZR~LZXa^^^^^^^^^^^^",
"^^^^^^^^^^^^p1ZR~RZ@a^^^^^^^^^^^^",
"^^^^^^^^^^^^p1ZR~LZXa^^^^^^^^^^^^",
"^^^^^^^^^^^^p1ZR~RZoa^^^^^^^^^^^^",
"^^^^^^^^^^^^p1ZR~RZ@a^^^^^^^^^^^^",
"^^^^^^^^^^^^p1ZR~RM@a^^^^^^^^^^^^",
"^^^^^^^^^^^^p1ZR~RZoa^^^^^^^^^^^^",
"^^^^^^^^^^^^p1ZR~RZ@a^^^^^^^^^^^^",
"^^^^^^^^^^^^p1ZR~RM@a^^^^^^^^^^^^",
"^^^^^^^^^^^^p1ZR~RM@a^^^^^^^^^^^^",
"^^^^^^^^^^^^p1ZR~RZ@a^^^^^^^^^^^^",
"^^^^^^^^^^^^p1ZR~RZ@a^^^^^^^^^^^^",
"^^^^^^^^^^^^p1ZR~LZ@a^^^^^^^^^^^^",
"^^^^^^^^^^^^p1ZR~RM@a^^^^^^^^^^^^",
"^^^^^^^^^^^^p1ZR~RZoa^^^^^^^^^^^^",
"^^^^^^^^^^^^p1ZR~RZ@a^^^^^^^^^^^^",
"^^^^^^^^^^^^p1ZR~LZ@a^^^^^^^^^^^^",
"^^^^^^^^^^^^p1ZR~RZ@a^^^^^^^^^^^^",
"^^^^^^^^^^^^p1ZR~RM@^^^^^^^^^^^^^",
"^^^^^^^^^^^^p1ZR~RZ@^^^^^^^^^^^^^",
"^^^^^^^^^^^^p1ZR~LZ@^^^^^^^^^^^^^",
"^^^^^^^^^^^^^1AR~RZo^^^^^^^^^^^^^",
"^^^^^^^^^^^^^1AR~RZX^^^^^^^^^^^^^",
"^^^^^^^^^^^^^1MLWLMX^^^^^^^^^^^^^",
"^^^^^^^^^^^^^1bHEHmX^^^^^^^^^^^^^",
"^^^^^^^^^^^^^:lDKDjo^^^^^^^^^^^^^",
"^^^^^^^^^^^^^-yvZvt*^^^^^^^^^^^^^",
"^^^^^^^^^^^^^w8sfs7q^^^^^^^^^^^^^",
"^^^^^^^^^^^^^^%.  %^^^^^^^^^^^^^^",
"^^^^^^^^^^^^^^^iii^^^^^^^^^^^^^^^",
"^^^^^^^^^^^^^^^^^^^^^^^^^^^^^^^^^",
"^^^^^^^^^^^^^^^^^^^^^^^^^^^^^^^^^",
"^^^^^^^^^^^^^^^^^^^^^^^^^^^^^^^^^",
"^^^^^^^^^^^^^^^^^^^^^^^^^^^^^^^^^",
"^^^^^^^^^^^^^^^^^^^^^^^^^^^^^^^^^",
"^^^^^^^^^^^^^^^^^^^^^^^^^^^^^^^^^",
"^^^^^^^^^^^^^^^^^^^^^^^^^^^^^^^^^",
"^^^^^^^^^^^^^^^^^^^^^^^^^^^^^^^^^",
"^^^^^^^^^^^^^^^^^^^^^^^^^^^^^^^^^",
"^^^^^^^^^^^^^^^^^^^^^^^^^^^^^^^^^",
"^^^^^^^^^^^^^^^^^^^^^^^^^^^^^^^^^",
"^^^^^^^^^^^^^^^^^^^^^^^^^^^^^^^^^",
"^^^^^^^^^^^^^^^^^^^^^^^^^^^^^^^^^",
"^^^^^^^^^^^^^^^^^^^^^^^^^^^^^^^^^",
"^^^^^^^^^^^^^^^^^^^^^^^^^^^^^^^^^",
"^^^^^^^^^^^^^^^^^^^^^^^^^^^^^^^^^",
"^^^^^^^^^^^^^^^^^^^^^^^^^^^^^^^^^"
};
