/* XPM */
static char *green_droite__[] = {
/* columns rows colors chars-per-pixel */
"41 41 57 1",
"  c #080000",
". c #07070F",
"X c #001B00",
"o c #1F1F1F",
"O c #133B07",
"+ c #3B003B",
"@ c #132733",
"# c #333333",
"$ c #43130F",
"% c #6F2B1F",
"& c #1B4B0B",
"* c #2F671B",
"= c #3B7727",
"- c #774707",
"; c #1B374B",
": c #23234B",
"> c #434343",
", c #535353",
"< c #636363",
"1 c #777777",
"2 c #8B3F2B",
"3 c #875307",
"4 c #936307",
"5 c #A37307",
"6 c #974B33",
"7 c #A7573B",
"8 c #B76743",
"9 c #C3734B",
"0 c #5F9B00",
"q c #6FA70B",
"w c #7FB717",
"e c #478733",
"r c #579343",
"t c #67A353",
"y c #B38707",
"u c #8FC327",
"i c #A3D337",
"p c #D38353",
"a c #B3DF4B",
"s c #FFFF43",
"d c #C7EF63",
"f c #DBFF7B",
"g c #808080",
"h c #878787",
"j c #979797",
"k c #A7A7A7",
"l c #BBBBBB",
"z c #FFFF87",
"x c #FBEF97",
"c c #C0C0C0",
"v c #CBCBCB",
"b c #DBDBDB",
"n c #FFFFCB",
"m c #EBEBEB",
"M c #FFFBF0",
"N c #FEFFFF",
"B c None",
/* pixels */
"BBBBBBBBBBBBBBBB#>,111jhgBBBBBBBBBBBBBBBB",
"BBBBBBBBBBBBB#>1>>#####>gNl1BBBBBBBBBBBBB",
"BBBBBBBBBBB#>1####oo#o#o###kb1BBBBBBBBBBB",
"BBBBBBBBB##>###oaadddsdsfoo##kb1BBBBBBBBB",
"BBBBBBBB#####oaaaasasdsfszf$o##NhBBBBBBBB",
"BBBBBBB####oiiaasasdsfszfzszzo##jkBBBBBBB",
"BBBBBB####uuiiaaasdsfszzszzzzzzo#1kBBBBBB",
"BBBBB####uuiiaasadsfszszzzzzzxnno#gkBBBBB",
"BBBB#>>#wtuiaaadsdsszszzzzzzxnnxno#khBBBB",
"BBB####ruupiiadsasfszzzszzzxnnnnnno#N,BBB",
"BBB###q8wuiiaasasfsz  zzzzxnxnnMnnno#kBBB",
"BB####rwutiiaaasdssz   zzzxxnnMNMnno#j,BB",
"BB###q7wuuiiasasdszs    zxxnnnnMnnnzo#jBB",
"B###orqt8uiiaaasdszs.    zxnxnnnnnzz##1,B",
"Bo##r4twuuiiaasasszz     .zznnnnnzxzfo#1B",
"B###eq5tuupiaasasfss.      zzxnzxxzzf##kB",
"##>e4rrw8ui .  X   .       .zxxxzzzzfso1>",
"##,ee5rwuwi                  zxzzzzfsd##<",
"o#,3eq7qtuu.                 .zzzfsfda##,",
"##>=4rqryti                    zszfsfsO#>",
"o#>ee4rqtuu                     zsfdda##>",
"##>-ee4rytu                    fsfdsdaO##",
"o#>=3erqtyu.                  sfdsdaaa$##",
"##<=e3e4rtw                  fsdsdadai&##",
"o#12==4rq5t                 dsdadaaaai#>#",
"B#>1-ee4rrwwuuauaiaa       ddadaaaaai##>B",
"Bo#v==3eq7q7tu9uuiai      adasaaaaiii###B",
"Bo#g<*2ee4rw5twuuiui     aaaaiaiiiii$#>#B",
"BB##k=-e3eqrrw8uu9ui    aiiiiiiiiiiu###BB",
"BBo#1<*-ee6q4rwrwuuu.  uiiiiiiiiuuuo###BB",
"BBBo#ct6=-ee4r5t5t8w. uuuuuiuuuuu8w:##BBB",
"BBBo##l==-=4erqrqrwrwutu8utu8utw8w@##oBBB",
"BBBBo#>c-=e=3e3r4r5w7w7qtw8wwryrw@>##BBBB",
"BBBBB##<v*2==e3ee4rrqrqr5wrq7qtq+>##BBBBB",
"BBBBBBo#,m*-=-ee4ee4r4r4tr4rqr4#>##BBBBBB",
"BBBBBBBo##Ng=2=-=e4eeeeq60re4#,>##BBBBBBB",
"BBBBBBBBo##hm1*=3==60606ee4#>,;#oBBBBBBBB",
"BBBBBBBBBoo##jMk=%=-==-==%>>##o#BBBBBBBBB",
"BBBBBBBBBBBo#$#>kch111jj1###o#BBBBBBBBBBB",
"BBBBBBBBBBBBBo#o##########o#BBBBBBBBBBBBB",
"BBBBBBBBBBBBBBBBoo#oo#o#oBBBBBBBBBBBBBBBB"
};
