/* XPM */
static char *green_gauche__[] = {
/* columns rows colors chars-per-pixel */
"41 41 58 1",
"  c #080000",
". c #07070F",
"X c #001B00",
"o c #071F00",
"O c #1F1F1F",
"+ c #333333",
"@ c #43130F",
"# c #4B2307",
"$ c #6F2B1F",
"% c #1B4B0B",
"& c #2F671B",
"* c #3B7727",
"= c #774707",
"- c #23234B",
"; c #434343",
": c #535353",
"> c #636363",
", c #777777",
"< c #8B3F2B",
"1 c #875307",
"2 c #936307",
"3 c #A37307",
"4 c #974B33",
"5 c #A7573B",
"6 c #B76743",
"7 c #5F9B00",
"8 c #6FA70B",
"9 c #7FB717",
"0 c #478733",
"q c #579343",
"w c #67A353",
"e c #77B367",
"r c #C39B07",
"t c #8FC327",
"y c #A3D337",
"u c #D38353",
"i c #B3DF4B",
"p c #FFFF43",
"a c #C7EF63",
"s c #DBFF7B",
"d c #808080",
"f c #878787",
"g c #979797",
"h c #A7A7A7",
"j c #BBBBBB",
"k c #B3DFA7",
"l c #FFFF87",
"z c #FBEF97",
"x c #C0C0C0",
"c c #CBCBCB",
"v c #DBDBDB",
"b c #FFFFCB",
"n c #DBDBEF",
"m c #EBEBEB",
"M c #FFE7E7",
"N c #FFFBF0",
"B c #FEFFFF",
"V c None",
/* pixels */
"VVVVVVVVVVVVVVVV+;:,,dfg,VVVVVVVVVVVVVVVV",
"VVVVVVVVVVVVV+;,;;+++++;dBj,VVVVVVVVVVVVV",
"VVVVVVVVVVV+;,++++OOO+O+O++hn,VVVVVVVVVVV",
"VVVVVVVVV++;+++Oiiaapapas@O++hv,VVVVVVVVV",
"VVVVVVVV+++++OiiiipiapsplplOO++BfVVVVVVVV",
"VVVVVVV++++OyyiipiappsplpllllOO+ghVVVVVVV",
"VVVVVV++++tyyyiiipapsplslllllll++,jVVVVVV",
"VVVVV++++tttyiipipapslpllpllllbzO+,hVVVVV",
"VVVV+;;+9wyyiiiapapspllpllllzbbbbO+hfVVVV",
"VVV++++9wrtyiipipaplpllllllbzbbbbbO+B>VVV",
"VVV+++q96tyyiiiapps  lplllzzbbbNbbbO+hVVV",
"VV++++869tyyiipipa.  lllllzbbbNBNbbO+g:VV",
"VV+++q89teyyiiipa.   lllllzbzbNNbbzl++fVV",
"V+++O85wttyyipip     lpllzzzbbbbbbzlO+d;V",
"VO++q2w9ttyyiiiX     lllllzzzbbbzzzls++,V",
"V+++08q96tyyiio      llllllzzbzblzllsO+hV",
"++;02q3w9tuyi.                zlllllspO,;",
"O+:002w96tty                  lllllssi+;:",
"++:1q8q8twy                   llllpspa@+:",
"O+;01q2w9t                    llpslaai%+;",
"O+;0*8q3w                     lplpapapO+;",
"++;<748q96X                   lpsasaay++;",
"O+:*<7058tw                   psapaaii%++",
"++>*=002q99t.                 apaaipyi@++",
"O+,&*208q3w9t.                aaapiiyy+;+",
"V+;,<*048596tt.      iaipaaaaapiiiyiy++;V",
"VO+c*1*208q8wtt      iiiiiiiiiiiiiyyy+++V",
"V++,>*=002q3969t.    iyiiiiiiiiyyyyy++;+V",
"VVO+h**10q2wq9w9t.   yyyyiyiyyyyyyttO++VV",
"VV++,:<*=0082q3w9t.  tyyyyyyyyytytt-+;+VV",
"VVVO+xw0*204q8q3w3w  ttttttttttttw9++OVVV",
"VVVO++j<**1*02q858w9tw96tttttwt69q#+++VVV",
"VVVVO+:j=**1002q08q3q3w9q3w6868q9#-+@VVVV",
"VVVVVO+:c*=*<*0202q8q858w9q9q8q3+;+OVVVVV",
"VVVVVVO+:m&*=0=0002q48q2q2q2q2q;;+OVVVVVV",
"VVVVVVV+++Bf&**1*10*2008q02q8+:+++VVVVVVV",
"VVVVVVVVO++fM,<&=0*10010100#;:+++VVVVVVVV",
"VVVVVVVVVOO++gNh*<**=*<0*$;;++O+VVVVVVVVV",
"VVVVVVVVVVVOO++;hkf,,dfh,+++O+VVVVVVVVVVV",
"VVVVVVVVVVVVVO+O++++++++++O+VVVVVVVVVVVVV",
"VVVVVVVVVVVVVVVVO+O+OO+O@VVVVVVVVVVVVVVVV"
};
