/* XPM */
static char *mini_aide[] = {
/* columns rows colors chars-per-pixel */
"39 39 189 2",
"   c #010101",
".  c #020202",
"X  c #030303",
"o  c #040404",
"O  c #050505",
"+  c #070707",
"@  c #000008",
"#  c #080808",
"$  c #090909",
"%  c #0B0B0B",
"&  c #0D0D0D",
"*  c #0E0E0E",
"=  c #0F0F0F",
"-  c #101010",
";  c #111111",
":  c #121212",
">  c #131313",
",  c #141414",
"<  c #151515",
"1  c #161616",
"2  c #171717",
"3  c #181818",
"4  c #191919",
"5  c #1A1A1A",
"6  c #1B1B1B",
"7  c #1C1C1C",
"8  c #1D1D1D",
"9  c #1E1E1E",
"0  c #1F1F1F",
"q  c #202020",
"w  c #212121",
"e  c #222222",
"r  c #232323",
"t  c #242424",
"y  c #252525",
"u  c #262626",
"i  c #272727",
"p  c #282828",
"a  c #292929",
"s  c #2A2A2A",
"d  c #2B2B2B",
"f  c #2C2C2C",
"g  c #2D2D2D",
"h  c #2E2E2E",
"j  c #2F2F2F",
"k  c #303030",
"l  c #313131",
"z  c #323232",
"x  c #333333",
"c  c #343434",
"v  c #353535",
"b  c #363636",
"n  c #383838",
"m  c #393939",
"M  c #3A3A3A",
"N  c #3B3B3B",
"B  c #3C3C3C",
"V  c #3E3E3E",
"C  c #3F3F3F",
"Z  c #404040",
"A  c #414141",
"S  c #444444",
"D  c #454545",
"F  c #464646",
"G  c #474747",
"H  c #484848",
"J  c #494949",
"K  c #4B4B4B",
"L  c #4C4C4C",
"P  c #4F4F4F",
"I  c #525252",
"U  c #535353",
"Y  c #545454",
"T  c #555555",
"R  c #565656",
"E  c #575757",
"W  c #585858",
"Q  c #5B5B5B",
"!  c #5C5C5C",
"~  c #5E5E5E",
"^  c #5F5F5F",
"/  c #626262",
"(  c #636363",
")  c #646464",
"_  c #656565",
"`  c #666666",
"'  c #676767",
"]  c #686868",
"[  c #696969",
"{  c #6C6C6C",
"}  c #6D6D6D",
"|  c #6E6E6E",
" . c #707070",
".. c #717171",
"X. c #727272",
"o. c #747474",
"O. c #757575",
"+. c #777777",
"@. c #797979",
"#. c #7A7A7A",
"$. c #7B7B7B",
"%. c #7C7C7C",
"&. c #7D7D7D",
"*. c #7E7E7E",
"=. c #808080",
"-. c #818181",
";. c #828282",
":. c #838383",
">. c #848484",
",. c #858585",
"<. c #868686",
"1. c #878787",
"2. c #888888",
"3. c #898989",
"4. c #8B8B8B",
"5. c #8C8C8C",
"6. c #8D8D8D",
"7. c #8E8E8E",
"8. c #909090",
"9. c #919191",
"0. c #939393",
"q. c #949494",
"w. c #959595",
"e. c #969696",
"r. c #9A9A9A",
"t. c #9B9B9B",
"y. c #9C9C9C",
"u. c #9D9D9D",
"i. c #9E9E9E",
"p. c #A0A0A0",
"a. c #A1A1A1",
"s. c #A4A4A4",
"d. c #A5A5A5",
"f. c #A6A6A6",
"g. c #A7A7A7",
"h. c #ABABAB",
"j. c #ACACAC",
"k. c #B1B1B1",
"l. c #B2B2B2",
"z. c #B3B3B3",
"x. c #B4B4B4",
"c. c #B5B5B5",
"v. c #B7B7B7",
"b. c #B8B8B8",
"n. c #B9B9B9",
"m. c #BABABA",
"M. c #BBBBBB",
"N. c #BCBCBC",
"B. c #BEBEBE",
"V. c #C0C0C0",
"C. c #C1C1C1",
"Z. c #C3C3C3",
"A. c #C7C7C7",
"S. c #C9C9C9",
"D. c #CACACA",
"F. c #CBCBCB",
"G. c #CCCCCC",
"H. c #CDCDCD",
"J. c #CFCFCF",
"K. c #D0D0D0",
"L. c #D1D1D1",
"P. c #D2D2D2",
"I. c #D4D4D4",
"U. c #D5D5D5",
"Y. c #D6D6D6",
"T. c #D8D8D8",
"R. c #D9D9D9",
"E. c #DBDBDB",
"W. c #DCDCDC",
"Q. c #DDDDDD",
"!. c #DEDEDE",
"~. c #DFDFDF",
"^. c #E0E0E0",
"/. c #E1E1E1",
"(. c #E2E2E2",
"). c #E3E3E3",
"_. c #E6E6E6",
"`. c #E7E7E7",
"'. c #E9E9E9",
"]. c #F1F1F1",
"[. c #F4F4F4",
"{. c #F5F5F5",
"}. c #FAFAFA",
"|. c #FBFBFB",
" X c #FCFCFC",
".X c #FDFDFD",
"XX c #FEFEFE",
"oX c #FFFFFF",
"OX c None",
/* pixels */
"OXOXOXOXOXOXOXOXOXW.Z.3.W B k v v k v k v v k h k I ..q.Z.OXOXOXOXOXOXOXOXOXOX",
"OXOXOXOXOXOXOXK...a %   & 0 , 4 0 4 4 0 4 4 0 : , , 4 , & v 9.W.OXOXOXOXOXOXOX",
"OXOXOXOXOXOX6.4 & t F ~ &.u.g.u.t.t.t.t.t.t.t.g.g.9.O.F A 0 @ a l.OXOXOXOXOXOX",
"OXOXOXOXK.O.@ 4 ~ p.W. X X X X X X|.|.|. X|.|. X X X X XF.=.A % k ,.OXOXOXOXOX",
"OXOXOXK.I @ a p.`. X X X X X X X X X X X X X X X X X X X|. XY.W 0 4 #.OXOXOXOX",
"OXOXOX[ @ a Z. X X X X X X X`. X X X X X X X X X X X X X|.|. X^.3.: r p.OXOXOX",
"OXOX6.: r x. X X X X X X X X X X X X X X X X X X X X X X X X X X XW , A F.OXOX",
"OX^.F , 3. X X X X X X X X X X X X X X X X X X X X X X X X X X X XY.H @ ..OXOX",
"OX,., k Y.|. X X X X X X X X X X X X X X X X X X X X X X X X X X X Xu.i 4 K.OX",
"OXE & =. X X X X X X X X X X X X X X X X X X X X X X X X X X X X X X`.L & x.OX",
"E.H , Y. X X X X|.{.|.J.Z.W.F.Y.Z.W. X X X X X X X X X X X X X X X X|.~ , [ OX",
"b.a ,  X X X X X X{.=.r A L M W H t. X X X X X X X X X X X X X X X|.|.g.0 r OX",
"b.i v  X X X X X X X9.F  X X X X X X X X X X X X X X X X X X X X X X XE.i i OX",
"Z.k /  X X X X X X X3.v  X X X X X X X X X X X X X X X X X X X X X X XN.r i OX",
"x.0 /  X X X X X X|.t.v E. X X X X X X X Xu.=. X X X X X X X X X X X|.A.M 4 OX",
"x.i )  X X X X X X X,.A |. X X X X X X Xp., 3. X X X X X X X X X X X XJ.a i W.",
"b.r )  X X X X X X|.q.r r M M r h.|. Xb.g.=.|  X X X X X X X X X X X XJ.a i W.",
"b.i )  X X X X X X Xq.v K. X X X|.|. X X X,.9. X X X X X X X X X X X XJ.i i W.",
"b.i [  X X X X X X X,.M  X X X X X X X X X6.#. X X X X X X X X X X X XA.a i OX",
"b.i [  X X X X X X|.q.M  X X X X X X X X Xh.)  X X X X X X X X X X X XF.a i OX",
"b.i )  X X X X X X|.3.r  X X X X[. X X X X&.&. X X X X X X X X X X X XF.a i OX",
"b.i [  X X X X X X XZ.g. X X X X X X X X X^.^. X X X X X X X X X X X XF.a a ^.",
"b.i )  X X X X X X X|. X X X X{. X X X X X X X X X X X X X X X X X X|.F.a i W.",
"l.a )  X X X X X X X X X X X X X X X X X X X X X X X X X X X X X X|.|.J.a 0 OX",
"x.a )  X X X X X X X X X X X X X X X X X X X X X X X X X X X X X X X XF.a i OX",
"x.a W  X X X X X XW. X X X X X X X X X X X X X X X X X X X X X X X X XF.h i OX",
"x.h k  X X X X X X X X X X X X X X X X X X X X X X X X X X X X X X X|.l.a h OX",
"x.h & ^. X X X X X X X X X X X X X X X X X X X X X X X X X X X X X X Xt.0 h OX",
"W.F & x. X X X X X X X X X X X X X X X X X X X X X X X X X X X X X X XE 0 [ OX",
"OX| & |  X X X X X X X X X X X X X X X X X X X X X X X X X X X X X X^.M O l.OX",
"OXp.0 r W. X X X X X X X X X X X X X X X X X X X X X X X X X'. X X X=., k OXOX",
"OXOXk 4 [ ^. X X X X X X X X X X X X X X X X X X X X X X X X X X XJ.B O p.OXOX",
"OXOXg.r & 6. X X X X X X X X X X`.|.|. X X X X X X X X X X X X X XF 0 A OXOXOX",
"OXOXOX| & 0 6. X X X X X X X X X X X X X X X X X X X X X X X X^.E 0 i Z.OXOXOX",
"OXOXOXOX/ i 4 | ^. X X X X X X X X X X X X X X X X X X X'.|.A.v a 0 p.OXOXOXOX",
"OXOXOXOXOX) r : k O.^. X X X X X X X X X X X X X X X X^.N.E 4 & B j.OXOXOXOXOX",
"OXOXOXOXOXOXl.v i & % F [ ,.q.q.q.q.q.6.6.9.q.q.6...~ 4 4 % 4 | Y.OXOXOXOXOXOX",
"OXOXOXOXOXOXOXOXq.E a r @ @ % @ @ @   % % O @ O O O O i B | l.OXOXOXOXOXOXOXOX",
"OXOXOXOXOXOXOXOXOXOXY.j.&.&.&.=.,.=.#.&.,.=.&.#.&.,.q.x.Y.OXOXOXOXOXOXOXOXOXOX"
};
