/* XPM */
static char *red_droite__[] = {
/* columns rows colors chars-per-pixel */
"41 41 21 1",
"  c #080000",
". c #530000",
"X c #5F1700",
"o c #6B0000",
"O c #731F00",
"+ c #4B2307",
"@ c #830000",
"# c #9B0000",
"$ c #B30000",
"% c #872F00",
"& c #9B3B00",
"* c #CB0000",
"= c #FE0000",
"- c #FF4B4B",
"; c #FF7373",
": c #FF9797",
"> c #FFBFBF",
", c #FFDBBB",
"< c #FFE7E7",
"1 c #FFFBF0",
"2 c None",
/* pixels */
"2222222222222222         2222222222222222",
"2222222222222   :;-==$$$$   2222222222222",
"22222222222  ::::;--***$$$$$  22222222222",
"2222222222 :>::::;-==$$$$$$$$$ 2222222222",
"22222222  >,>::;;==*=*=#$$$$$$$  22222222",
"2222222 ><<>>:;=========*$$$$$$$$ 2222222",
"222222 <1<>>;-============$$$$$$#$ 222222",
"22222 <11<:;================$$$$$## 22222",
"2222 >11<:-===================#$#$## 2222",
"2222 <<<:-========$$==========*$#### 2222",
"222 ><>:-=========$oX===========#$%## 222",
"22 :,>>;==========$Xoo==========*##### 22",
"22 >>>;===========$oooo==========$###@ 22",
"2 ;::;-===========$ooooX==========###@# 2",
"2 ;;:-============$oooooo=========$##@# 2",
"2 ;;;====$$$$$$$$$$oXooooX========*##@@ 2",
" ----====$XoXooXooooooooooo========$#@@@ ",
" ---=====$oooooooooooooXoooo=======*#@@@ ",
" ====*===$ooooooooooXoooooooo======*#@O@ ",
" ===*====$.oooXoooXooooooXoooo=====*#@@@ ",
" *=$=*===$oooooooXooooooooooXo.====*#O@o ",
" *=$$====$oXoooooooooXoooooooo;;===*#@o@ ",
" *$***===$ooooo.oXoooooo.+ooo;;====*@@oo ",
" ***=$===$.ooooXooooooo+@ooo;;=====*@Oo@ ",
" *$$$*====Xoooooooo+ooooooo;;======$Ooo@ ",
"2 $$$$=====;;;;;;;$ooooooo;;=======o@oo 2",
"2 $$$$*===========$ooXooo;;=======$@ooo 2",
"2 $$$$$===========$ooooo;;=======*@@ooo 2",
"22 $$$$$==========$oooo;;========$@ooo 22",
"22 $$$$$=*========$oo.;;========$@oOoo 22",
"222 $$&$$*=========oo;;========*@@o.o 222",
"2222 $$$#$*=========;;========*#@Xoo 2222",
"2222 $$#$#$*=================$@@oooo 2222",
"22222 #$###$$==============*$@oO.oo 22222",
"222222 #######$==========*$@Oooooo 222222",
"2222222 ########$$*=*=*$$@O@ooooo 2222222",
"22222222  ##%#@#@#%#@@@@@O@oooo  22222222",
"2222222222 ##@#@@#@@@@@Ooooooo 2222222222",
"22222222222  #@@@@@@@Ooo@ooo  22222222222",
"2222222222222   @@@@o@o@o   2222222222222",
"2222222222222222         2222222222222222"
};
