/* XPM */
static char *red_gauche__[] = {
/* columns rows colors chars-per-pixel */
"41 41 21 1",
"  c #080000",
". c #530000",
"X c #5F1700",
"o c #6B0000",
"O c #731F00",
"+ c #4B2307",
"@ c #830000",
"# c #9B0000",
"$ c #B30000",
"% c #872F00",
"& c #9B3B00",
"* c #CB0000",
"= c #FE0000",
"- c #FF4B4B",
"; c #FF7373",
": c #FF9797",
"> c #FFBFBF",
", c #FFDBBB",
"< c #FFE7E7",
"1 c #FFFBF0",
"2 c None",
/* pixels */
"2222222222222222         2222222222222222",
"2222222222222   :;-==$$$$   2222222222222",
"22222222222  ::::;--***$$$$$  22222222222",
"2222222222 :>::::;-==$$$$$$$$$ 2222222222",
"22222222  >,>::;;==*=*=#$$$$$$$  22222222",
"2222222 ><<>>:;=========*$$$$$$$$ 2222222",
"222222 <1<>>;-============$$$$$$#$ 222222",
"22222 <11<:;================$$$$$## 22222",
"2222 >11<:-===================#$#$## 2222",
"2222 <<<:-=========$$=========*$#### 2222",
"222 ><>:-=========$$Xo==========#$%## 222",
"22 :,>>;=========$$Xoo;=========*##### 22",
"22 >>>;=========$$oooo;==========$###@ 22",
"2 ;::;-========$$Xoooo;===========###@# 2",
"2 ;;:-========$$ooooXo;===========$##@# 2",
"2 ;;;========$$Xoooooo;$$$$$$$====*##@@ 2",
" ----=======$$OoooXoooooooo.ooo====$#@@@ ",
" ---=======$$ooooooooooXoooXooo;===*#@@@ ",
" ====*====$$ooooXooooXooooooooo;===*#@O@ ",
" ===*====$$XoooooooooooooXooooo;===*#@@@ ",
" *=$=*====Xooooooo.XooooooooXoo;===*#O@o ",
" *=$$======ooooXoooooo.Xooooooo;===*#@o@ ",
" *$***======Xoooooooo+ooooooo.o;===*@@oo ",
" ***=$=======oooo.o+ooooo+oooXo;===*@Oo@ ",
" *$$$*========oo.oooooooooooooo;===$Ooo@ ",
"2 $$$$=========ooooooo;;;;;;;;;;===o@oo 2",
"2 $$$$*=========oooooo;===========$@ooo 2",
"2 $$$$$==========oXooo;==========*@@ooo 2",
"22 $$$$$==========oooo;==========$@ooo 22",
"22 $$$$$=*=========oXo;=========$@oOoo 22",
"222 $$&$$*==========oo;========*@@o.o 222",
"2222 $$$#$*==========;;=======*#@Xoo 2222",
"2222 $$#$#$*=================$@@oooo 2222",
"22222 #$###$$==============*$@oO.oo 22222",
"222222 #######$==========*$@Oooooo 222222",
"2222222 ########$$*=*=*$$@O@ooooo 2222222",
"22222222  ##%#@#@#%#@@@@@O@oooo  22222222",
"2222222222 ##@#@@#@@@@@Ooooooo 2222222222",
"22222222222  #@@@@@@@Ooo@ooo  22222222222",
"2222222222222   @@@@o@o@o   2222222222222",
"2222222222222222         2222222222222222"
};
